
<svg xmlns="http://www.w3.org/2000/svg" viewBox="0 0 100 100">
  <circle cx="50" cy="50" r="48" fill="#eab308" />
  <circle cx="50" cy="50" r="42" fill="none" stroke="#0a1120" strokeWidth="4" />
  <path d="M32 35 Q50 32 68 35 L72 65 Q50 72 28 65 Z" fill="#fef08a" stroke="#eab308" strokeWidth="1" />
  <path d="M68 35 L72 65 Q55 68 50 64 L50 33 Z" fill="#facc15" opacity="0.4" />
  <path d="M25 45 Q50 38 75 45 L78 55 Q50 50 22 55 Z" fill="#0a1120" />
  <g transform="translate(40, 48) rotate(-10)">
    <path d="M0 0 Q5 2 10 0" fill="none" stroke="#facc15" strokeWidth="2.5" strokeLinecap="round" />
  </g>
  <g transform="translate(52, 46) rotate(10)">
    <path d="M0 0 Q5 2 10 0" fill="none" stroke="#facc15" strokeWidth="2.5" strokeLinecap="round" />
  </g>
  <path d="M55 60 Q60 62 65 60" fill="none" stroke="#0a1120" strokeWidth="2" strokeLinecap="round" opacity="0.8" />
  <path d="M25 35 Q50 28 75 35 L72 38 Q50 32 28 38 Z" fill="#1e293b" />
  <path d="M38 30 L42 18 Q50 15 58 18 L62 30" fill="#0a1120" />
  <rect x="40" y="25" width="20" height="3" fill="#eab308" opacity="0.8" />
  <path d="M35 38 Q38 40 35 42" fill="none" stroke="white" strokeWidth="1.5" strokeLinecap="round" opacity="0.6" />
</svg>
